<svg xmlns="http://www.w3.org/2000/svg" viewBox="0 0 323.1 90"><g id="Layer_2" data-name="Layer 2"><g id="Layer_1-2" data-name="Layer 1"><path d="M44.3,69.7a184.13,184.13,0,0,1-19-7.7A9.7,9.7,0,0,0,22,61C9.7,60.5,0,50.1,0,30.7,0,13.4,8.9.1,23.9.1,39.5.1,46.6,14.2,46.6,29.7c0,14.3-4.9,23.6-11.8,26.9V57c4.3,1.5,9,2.8,13.2,3.9ZM23.4,51.4c7.4,0,11.1-9.2,11.1-21.2C34.5,19.1,31,9.6,23.4,9.6S12,19.2,12,30.5c-.1,11.7,3.8,20.9,11.4,20.9Z"/><path d="M51.3.9H81.5v9.6H62.8V26H80.3v9.4H62.7V60H51.3Z"/><path d="M130.3,37.7c-.3-6.7-.7-15-.6-22.4h-.2C128,22.2,126,29.9,124.2,36l-6.7,23.2H109l-6.1-22.9c-1.7-6.2-3.5-14.1-4.7-21.1H98c-.2,7.2-.6,15.7-.9,22.7L96,60.1H85.6L89.6.9h13.7l5.9,22c1.9,7.2,3.5,14,4.7,20.8h.2c1.2-6.6,2.9-13.7,4.8-20.8L125,.9h13.6L142,60.1H131.3Z"/><path d="M159,45l-3.7,15.1H143.8L159.5.9h14.2L189,60.1H177.2L173.4,45Zm13-8.7-3.1-13.2c-.8-3.6-1.7-8.7-2.5-12.4h-.2c-.8,3.7-1.6,8.9-2.5,12.4l-3.2,13.1H172Z"/><path d="M209.7,16.6h8v1.6h-6v3.7h5.7v1.6h-5.7v4.7h-2Z"/><path d="M224.8,26.2a3.34,3.34,0,0,1-3.1,2.2c-2,0-2.8-1.3-2.8-3.3V19.6h1.9v5.2c0,1.2.4,2,1.6,2s2.4-1.4,2.4-5V19.6h1.9v8.6h-1.9Z"/><path d="M230.5,22.2c.6-1.9,1.8-2.7,3-2.7v1.9c-1.7,0-3,.9-3,4.6v2.3h-1.9V19.7h1.9Z"/><path d="M236.7,21.7a3.34,3.34,0,0,1,3.1-2.2c2,0,2.8,1.3,2.8,3.3v5.5h-1.9V23c0-1.2-.4-2-1.6-2s-2.4,1.4-2.4,5v2.2h-1.9V19.6h1.9Z"/><path d="M244.5,18.8V16.9h1.9v1.9Zm0,9.4V19.6h1.9v8.6Z"/><path d="M249,19.7V17.6h1.9v2.1h2v1.4h-2v4.7c0,.7.1,1.2,1,1.2a4.25,4.25,0,0,0,1.1-.2v1.4a5.08,5.08,0,0,1-1.7.3c-1.8,0-2.2-1-2.2-2.6V21.1h-1.3V19.7Z"/><path d="M260,26.2a3.34,3.34,0,0,1-3.1,2.2c-2,0-2.8-1.3-2.8-3.3V19.6H256v5.2c0,1.2.4,2,1.6,2s2.4-1.4,2.4-5V19.6h1.9v8.6H260Z"/><path d="M265.7,22.2c.6-1.9,1.8-2.7,3-2.7v1.9c-1.7,0-3,.9-3,4.6v2.3h-1.9V19.7h1.9Z"/><path d="M271.2,24.3a2.4,2.4,0,0,0,2.7,2.6,4.6,4.6,0,0,0,3.4-1.2v1.5a5.78,5.78,0,0,1-3.6,1.2,4.15,4.15,0,0,1-4.5-4.5,4.17,4.17,0,0,1,4.4-4.5c3.1,0,4.1,2.1,4.1,4.2v.6Zm4.6-1.2a1.94,1.94,0,0,0-2.2-2.2,2.08,2.08,0,0,0-2.3,2V23h4.5Z"/><path d="M215.1,44.2l-3.6-8.6v8.6h-1.8V32.5h2.4l3.6,8.3,3.6-8.3h2.4V44.2h-1.9V35.6l-3.7,8.6Z"/><path d="M223.7,36.6a5.78,5.78,0,0,1,3.6-1.2c2.6,0,3.8,1.2,3.8,3.2v5.6h-1.9V42.8a3.66,3.66,0,0,1-3,1.6c-1.9,0-3-1.1-3-2.5,0-2,1.6-2.9,4.3-2.9h1.7v-.4c0-.9-.5-1.6-2.1-1.6a5,5,0,0,0-3.4,1.2Zm4,3.6c-1.9,0-2.5.6-2.5,1.4s.7,1.3,1.7,1.3a2.24,2.24,0,0,0,2.4-2.2v-.4h-1.6Z"/><path d="M235,37.6a3.21,3.21,0,0,1,3.1-2.2c2,0,2.8,1.3,2.8,3.3v5.5H239V39c0-1.2-.4-2-1.6-2s-2.4,1.4-2.4,5v2.2h-1.9V35.6H235Z"/><path d="M248.6,42.1a3.34,3.34,0,0,1-3.1,2.2c-2,0-2.8-1.3-2.8-3.3V35.5h1.9v5.2c0,1.2.4,2,1.6,2s2.4-1.4,2.4-5V35.5h1.9v8.6h-1.9Z"/><path d="M253.1,35.6v-.7c0-1.8.9-2.6,2.5-2.6a6.75,6.75,0,0,1,1.4.2V34a3.55,3.55,0,0,0-1-.2c-.6,0-1,.2-1,1.2v.6h2V37h-2v7.2h-1.9V37h-1.3V35.6Z"/><path d="M258,36.6a5.78,5.78,0,0,1,3.6-1.2c2.6,0,3.8,1.2,3.8,3.2v5.6h-1.9V42.8a3.66,3.66,0,0,1-3,1.6c-1.9,0-3-1.1-3-2.5,0-2,1.6-2.9,4.3-2.9h1.7v-.4c0-.9-.5-1.6-2.1-1.6a5.5,5.5,0,0,0-3.5,1.2Zm4,3.6c-1.9,0-2.5.6-2.5,1.4s.7,1.3,1.7,1.3a2.24,2.24,0,0,0,2.4-2.2v-.4H262Z"/><path d="M274.5,43.3a4.89,4.89,0,0,1-3.1,1.1,4.15,4.15,0,0,1-4.5-4.5,4.2,4.2,0,0,1,4.5-4.5,4.55,4.55,0,0,1,3.1,1.1v1.6a3.45,3.45,0,0,0-2.8-1.2c-1.6,0-2.7,1.1-2.7,3s1.1,3,2.7,3a3.63,3.63,0,0,0,2.8-1.2Z"/><path d="M276.7,35.6V33.5h1.9v2.1h2V37h-2v4.7c0,.7.1,1.2,1,1.2a4.25,4.25,0,0,0,1.1-.2v1.4a5.08,5.08,0,0,1-1.7.3c-1.8,0-2.2-1-2.2-2.6V37h-1.3V35.6Z"/><path d="M287.6,42.1a3.34,3.34,0,0,1-3.1,2.2c-2,0-2.8-1.3-2.8-3.3V35.5h1.9v5.2c0,1.2.4,2,1.6,2s2.4-1.4,2.4-5V35.5h1.9v8.6h-1.9Z"/><path d="M293.3,38.1c.6-1.9,1.8-2.7,3-2.7v1.9c-1.7,0-3,.9-3,4.6v2.3h-1.9V35.6h1.9Z"/><path d="M298.9,40.3a2.4,2.4,0,0,0,2.7,2.6,4.6,4.6,0,0,0,3.4-1.2v1.5a5.27,5.27,0,0,1-3.7,1.1,4.15,4.15,0,0,1-4.5-4.5,4.17,4.17,0,0,1,4.4-4.5c3.2,0,4.1,2.1,4.1,4.3v.6Zm4.6-1.3a1.94,1.94,0,0,0-2.2-2.2,2.14,2.14,0,0,0-2.3,2V39Z"/><path d="M308.7,38.1c.6-1.9,1.8-2.7,3-2.7v1.9c-1.7,0-3,.9-3,4.6v2.3h-1.9V35.6h1.9Z"/><path d="M312.5,41.8a5.24,5.24,0,0,0,3.4,1c1.1,0,1.8-.3,1.8-1.1,0-1.6-5.1-.6-5.1-3.9,0-1.7,1.5-2.5,3.4-2.5a7.3,7.3,0,0,1,3.5.9v1.6a5,5,0,0,0-3.3-1c-1,0-1.6.2-1.6.9,0,1.6,5.2.6,5.2,3.8,0,1.8-1.4,2.7-3.6,2.7a6.76,6.76,0,0,1-3.5-.9V41.8Z"/><path d="M323.1,34.1c0,1.8-.4,2.3-2.2,2.3V35.3c.4,0,.6-.1.6-1.1V32.6H323Z"/><path d="M211.1,57.5l-.9,2.5h-2.1l4.5-11.7h2.3L219.3,60h-2.1l-.9-2.5Zm2.7-7.2L211.7,56h4.2Z"/><path d="M220.1,57.7a5.89,5.89,0,0,0,3.4,1c1.1,0,1.8-.3,1.8-1.1,0-1.6-5.1-.6-5.1-3.9,0-1.7,1.5-2.5,3.4-2.5a7.3,7.3,0,0,1,3.5.9v1.6a5.58,5.58,0,0,0-3.3-1c-1,0-1.6.2-1.6.9,0,1.6,5.2.6,5.2,3.8,0,1.8-1.4,2.7-3.6,2.7a6.76,6.76,0,0,1-3.5-.9V57.7Z"/><path d="M228.3,57.7a5.89,5.89,0,0,0,3.4,1c1.1,0,1.8-.3,1.8-1.1,0-1.6-5.1-.6-5.1-3.9,0-1.7,1.5-2.5,3.4-2.5a7.3,7.3,0,0,1,3.5.9v1.6a5.58,5.58,0,0,0-3.3-1c-1,0-1.6.2-1.6.9,0,1.6,5.2.6,5.2,3.8,0,1.8-1.4,2.7-3.6,2.7a7,7,0,0,1-3.5-.9V57.7Z"/><path d="M245.3,55.8a4.22,4.22,0,0,1-4.4,4.5,4.17,4.17,0,0,1-4.4-4.5,4.22,4.22,0,0,1,4.4-4.5A4.27,4.27,0,0,1,245.3,55.8Zm-2,0c0-1.5-.6-3-2.4-3s-2.4,1.6-2.4,3,.6,3,2.4,3S243.3,57.3,243.3,55.8Z"/><path d="M253.8,59.2a4.69,4.69,0,0,1-3.1,1.1,4.15,4.15,0,0,1-4.5-4.5,4.2,4.2,0,0,1,4.5-4.5,4.55,4.55,0,0,1,3.1,1.1V54a3.45,3.45,0,0,0-2.8-1.2c-1.6,0-2.7,1.1-2.7,3s1.1,3,2.7,3a3.63,3.63,0,0,0,2.8-1.2Z"/><path d="M255.5,50.7V48.8h1.9v1.9Zm0,9.4V51.5h1.9v8.6Z"/><path d="M259.2,52.5a5.78,5.78,0,0,1,3.6-1.2c2.6,0,3.8,1.2,3.8,3.2v5.6h-1.9V58.7a3.66,3.66,0,0,1-3,1.6c-1.9,0-3-1.1-3-2.5,0-2,1.6-2.9,4.3-2.9h1.7v-.4c0-.9-.5-1.6-2.1-1.6a5,5,0,0,0-3.4,1.2Zm4,3.7c-1.9,0-2.5.6-2.5,1.4s.7,1.3,1.7,1.3a2.24,2.24,0,0,0,2.4-2.2v-.4h-1.6Z"/><path d="M269.1,51.5V49.4H271v2.1h2v1.4h-2v4.7c0,.7.1,1.2,1,1.2a4.25,4.25,0,0,0,1.1-.2V60a5.08,5.08,0,0,1-1.7.3c-1.8,0-2.2-1-2.2-2.6V52.9h-1.3V51.5Z"/><path d="M274.2,50.7V48.8h1.9v1.9Zm0,9.4V51.5h1.9v8.6Z"/><path d="M286.3,55.8a4.22,4.22,0,0,1-4.4,4.5,4.17,4.17,0,0,1-4.4-4.5,4.4,4.4,0,1,1,8.8,0Zm-2,0c0-1.5-.6-3-2.4-3s-2.4,1.6-2.4,3,.6,3,2.4,3S284.3,57.3,284.3,55.8Z"/><path d="M289.7,53.6a3.34,3.34,0,0,1,3.1-2.2c2,0,2.8,1.3,2.8,3.3v5.5h-1.9V55c0-1.2-.4-2-1.6-2s-2.4,1.4-2.4,5v2.2h-1.9V51.6h1.9Z"/><path d="M227.1,5.5c0,3.5-1.1,5-2.4,5s-1.6-.8-1.6-2V3.3h-1.9V8.8c0,2,.8,3.3,2.8,3.3a3.25,3.25,0,0,0,3.1-2.2V12H229V3.3h-1.9Z"/><path d="M234.8,3.1a4.17,4.17,0,0,0-4.4,4.5,4.15,4.15,0,0,0,4.5,4.5,5.17,5.17,0,0,0,3.7-1.2V9.3a4.23,4.23,0,0,1-3.4,1.2,2.44,2.44,0,0,1-2.7-2.6h6.4V7.3C238.8,5.2,237.9,3.1,234.8,3.1Zm-2.3,3.6a2.22,2.22,0,0,1,2.2-2.2h.1c1.8,0,2.1,1.1,2.2,2.2Z"/><path d="M245.1,3.1a2.91,2.91,0,0,0-2.8,1.6V.2h-1.9V11.9h1.9V10.5a3.11,3.11,0,0,0,2.8,1.6c2.3,0,3.7-1.7,3.7-4.5S247.4,3.1,245.1,3.1Zm-.5,7.5c-1.3,0-2.3-1-2.3-3s1-3,2.3-3c1.6,0,2.2,1.4,2.2,3s-.6,3-2.2,3Z"/><path d="M254.2,3.1a4.17,4.17,0,0,0-4.4,4.5,4.15,4.15,0,0,0,4.5,4.5,5.17,5.17,0,0,0,3.7-1.2V9.3a4.23,4.23,0,0,1-3.4,1.2,2.44,2.44,0,0,1-2.7-2.6h6.4V7.3C258.3,5.2,257.3,3.1,254.2,3.1Zm-2.3,3.6a2.22,2.22,0,0,1,2.2-2.2h.1c1.8,0,2.1,1.1,2.2,2.2Z"/><path d="M264,4.5a3.63,3.63,0,0,1,2.8,1.2V4.1a4.45,4.45,0,0,0-3.1-1,4.15,4.15,0,0,0-4.5,4.5,4.2,4.2,0,0,0,4.5,4.5,4,4,0,0,0,3.1-1.1V9.3a3.33,3.33,0,0,1-2.8,1.2c-1.6,0-2.7-1.1-2.7-3S262.4,4.5,264,4.5Z"/><path d="M219.7,6c0-3.3-2-6-5.8-6s-5.8,2.7-5.8,6c0,2.8,1.4,5.1,4.2,5.8a1,1,0,0,1,.4.1c.9.3,4,1.9,5.1,2.3l.7-1.7c-.6-.2-1.6-.6-2.4-.9C218.4,10.8,219.7,8.7,219.7,6Zm-5.8,4.4c-2.5,0-3.7-1.8-3.7-4.4s1.2-4.4,3.7-4.4,3.8,1.8,3.8,4.4-1.3,4.4-3.8,4.4Z"/><path d="M60.6,87.6a6.2,6.2,0,0,0,3.2.9c1,0,2.1-.3,2.1-1.3,0-2-5.2-1.2-5.2-4.4,0-1.8,1.6-2.5,3.2-2.5a7.64,7.64,0,0,1,3.3.8v1.4a5.61,5.61,0,0,0-3.1-.9c-1,0-1.8.2-1.8,1.2,0,1.9,5.1,1,5.1,4.4,0,2-1.7,2.8-3.5,2.8a6.81,6.81,0,0,1-3.4-.8Z"/><path d="M69.4,82.2V80.7h1.5v1.5Zm0,7.5V82.9h1.5v6.8Z"/><path d="M74.6,84.5a2.67,2.67,0,0,1,2.5-1.8c1.6,0,2.2,1,2.2,2.6v4.4H77.8V85.5c0-.9-.3-1.6-1.3-1.6s-1.9,1.1-1.9,4v1.8H73.1V82.9h1.5Z"/><path d="M87,89a3.07,3.07,0,0,1-2.4.8,3.48,3.48,0,0,1-3.5-3.5,3.54,3.54,0,0,1,3.5-3.5,3.85,3.85,0,0,1,2.4.8v1.3a3.26,3.26,0,0,0-2.3-1,2.16,2.16,0,0,0-2.2,2.4,2.11,2.11,0,0,0,2.2,2.4,3.26,3.26,0,0,0,2.3-1Z"/><path d="M90,86.6a1.93,1.93,0,0,0,2.2,2.1,3.78,3.78,0,0,0,2.7-1v1.2a4.36,4.36,0,0,1-2.9.9,3.26,3.26,0,0,1-3.5-3.5A3.31,3.31,0,0,1,92,82.8c2.5,0,3.2,1.7,3.2,3.4v.5Zm3.7-1c0-.9-.3-1.7-1.7-1.7a1.71,1.71,0,0,0-1.9,1.6v.1Z"/><path d="M106.1,89.7h-5.5V88.4h2V82l-2,1.1V81.6l2-1.1h1.6v8h2v1.2Z"/><path d="M107.9,87.7a5,5,0,0,0,2.6.8c1.8,0,2.8-1.2,2.8-3.6a3.93,3.93,0,0,1-2.9,1.3,2.71,2.71,0,0,1-3-2.7c0-1.7,1.2-3.2,3.6-3.2,2.7,0,3.8,1.9,3.8,4.6,0,2.4-1.1,4.9-4.2,4.9a5.3,5.3,0,0,1-2.8-.7V87.7Zm3-6.2a1.74,1.74,0,0,0-1.9,1.7v.1a1.71,1.71,0,0,0,1.7,1.8h.2a2.94,2.94,0,0,0,2.3-1.2,2.41,2.41,0,0,0-2.3-2.4Z"/><path d="M122.6,87.5v2.1H121V87.5h-4.8V86.2l4.7-5.8h1.7v5.8h1.3v1.3ZM121,82.1l-3.2,4.2H121Z"/><path d="M128.4,86c1.1-.8,2.2-1.7,2.2-2.8s-1-1.6-2-1.6a5.29,5.29,0,0,0-3,.9V81.1a7.31,7.31,0,0,1,3.3-.8c1.8,0,3.3.8,3.3,2.7,0,1.6-1.2,2.6-2.5,3.6l-2.2,1.7h4.9v1.3h-7V88.1Z"/><rect x="51.3" y="70.9" width="90.8" height="0.5"/></g></g></svg>